# xmcd CD database file
#
# Track frame offsets:
#	150
#	27405
#	53000
#	89520
#	106875
#	122875
#	148280
#	181575
#
# Disc length: 2890 seconds
#
# Revision: 0
# Processed by: cddbd v1.5.1PL2 Copyright (c) Steve Scherf et al.
# Submitted via: CDex 1.51
#
DISCID=6a0b4808
DTITLE=Varios - Salsa e merengue
DYEAR=1900
DGENRE=Salsa
TTITLE0=Extraños ateos
TTITLE1=Sobre tu imagen
TTITLE2=Que vira chango
TTITLE3=Qiero que decidas ya
TTITLE4=Para tu altar
TTITLE5=La expresiva
TTITLE6=Viejo lazaro
TTITLE7=Santa Palavra
EXTD=
EXTT0=
EXTT1=
EXTT2=
EXTT3=
EXTT4=
EXTT5=
EXTT6=
EXTT7=
PLAYORDER=
